PathFileType	4	(X/Y/Z)	F:\MotionCapture\20160217\3\Generated_files\EMG_Fprce_test06-Dynamic.trc
DataRate	CameraRate	NumFrames	NumMarkers	Units	OrigDataRate	OrigDataStartFrame	OrigNumFrames
120.00	120.00	       7	39	mm	120.00	247	       657
Frame#	Time	Top.Head			Front.Head			Rear.Head			R.Shoulder			R.Offset			R.Elbow			R.Wrist			L.Shoulder			L.Elbow			L.Wrist			R.ASIS			L.ASIS			V.Sacral			R.Thigh			R.Knee			R.Shank			R.Ankle			R.Heel			R.Toe			L.Thigh			L.Knee			L.Shank			L.Ankle			L.Heel			L.Toe			R1			R2			R3			R4			R5			R6			R7			L1			L2			L3			L4			L5			L6			L7			V_Mid_ASIS			V_Pelvis_Origin			V_R.Hip_JC			V_L.Hip_JC			V_R.Knee_JC			V_L.Knee_JC			V_R.Ankle_JC			V_L.Ankle_JC			V_Mid_Hip			V_Mid_Shoulder			V_R.Hand			V_L.Hand			V_R.Toe_Offset_Static			V_L.Toe_Offset_Static			V_R.Toe_Offset			V_L.Toe_Offset			
		X1	Y1	Z1	X2	Y2	Z2	X3	Y3	Z3	X4	Y4	Z4	X5	Y5	Z5	X6	Y6	Z6	X7	Y7	Z7	X8	Y8	Z8	X9	Y9	Z9	X10	Y10	Z10	X11	Y11	Z11	X12	Y12	Z12	X13	Y13	Z13	X14	Y14	Z14	X15	Y15	Z15	X16	Y16	Z16	X17	Y17	Z17	X18	Y18	Z18	X19	Y19	Z19	X20	Y20	Z20	X21	Y21	Z21	X22	Y22	Z22	X23	Y23	Z23	X24	Y24	Z24	X25	Y25	Z25	X26	Y26	Z26	X27	Y27	Z27	X28	Y28	Z28	X29	Y29	Z29	X30	Y30	Z30	X31	Y31	Z31	X32	Y32	Z32	X33	Y33	Z33	X34	Y34	Z34	X35	Y35	Z35	X36	Y36	Z36	X37	Y37	Z37	X38	Y38	Z38	X39	Y39	Z39	

247	2.050	913.29736	118.28950	1701.11646	798.90106	122.16574	1622.01892	1018.67957	104.48800	1628.63635	987.19800	300.83557	1393.58533	1096.27649	19.30639	1263.55103	1116.62756	396.59692	1101.66772	1100.31152	423.81329	839.53015	914.88348	-99.44449	1399.68042	817.91357	-187.65465	1088.74341	604.31696	-125.21574	958.25507	907.47723	234.96205	921.28973	913.95270	-53.58580	915.78815	1135.10107	98.03050	926.50446	740.63855	220.27635	619.86603	760.82532	256.99637	494.11349	706.88232	185.27284	267.71326	721.33783	250.40738	91.58294	779.46887	184.00304	51.05435	580.94110	229.53246	91.11091	935.23706	15.07353	587.56390	1067.88904	-25.01610	444.77261	1093.44897	61.47518	312.45651	1229.30334	17.47968	67.75487	1296.66870	73.66239	61.82459	1092.59167	23.53579	40.88940	542.37262	216.00558	110.42493	576.37543	193.80885	100.35599	667.98346	162.37288	95.70406	733.32965	156.50244	64.69884	751.74963	229.03093	55.64891	671.72998	258.55344	58.32186	613.26752	268.01044	72.28259	1047.58459	48.60767	36.12256	1080.84656	62.56150	44.62020	1173.70862	105.21921	53.54861	1257.28748	105.42261	58.63229	1268.95996	34.07746	54.68100	1196.76819	6.70335	35.70363	1133.82397	-9.65201	38.91219	
248	2.058	900.61890	118.30050	1698.23743	786.44135	122.07140	1618.85852	1005.85840	104.35580	1625.74475	975.03473	301.10800	1391.05750	1083.90125	19.82644	1260.37195	1107.23401	396.26172	1100.72949	1095.37048	423.90201	838.52124	902.28259	-99.05772	1396.18481	800.33325	-185.49239	1086.38525	583.67163	-120.66685	962.41998	893.90851	235.31752	918.05701	901.86249	-53.52173	913.09692	1122.52820	99.19098	924.21234	727.89514	218.53198	615.85809	746.70074	255.35782	491.87869	682.92865	185.38622	268.49142	689.06042	251.92110	92.84093	745.11719	185.44283	48.21661	548.77069	231.00136	97.86053	926.27728	13.29662	584.66180	1061.99866	-25.49280	443.91693	1088.70825	60.93084	311.41397	1228.91736	17.49099	69.59937	1296.39844	74.03864	64.05634	1092.42029	23.43855	40.67231	511.45114	217.13052	118.92862	544.22455	195.29823	107.08781	635.89337	163.50769	97.77646	700.04309	157.98619	64.36057	718.16571	230.91293	54.95331	638.77594	260.35971	61.50876	578.13440	268.10077	77.04698	1047.56104	48.44126	35.78988	1080.75732	62.40486	44.54713	1173.24475	105.17567	54.23083	1256.17090	105.72807	60.31892	1268.76685	34.35278	56.76799	1196.83411	6.69517	36.15216	1133.90332	-9.74348	38.70940																																																	877.11456	374.17865	759.31390	
249	2.067	887.95746	118.19276	1695.10999	773.26404	122.55684	1615.75073	992.90973	104.24151	1623.02600	962.97125	301.62643	1388.71375	1071.48425	20.28778	1257.49548	1097.80835	396.80103	1099.76428	1089.55261	424.84958	837.20056	889.35657	-98.27650	1392.79651	783.91882	-183.84016	1084.16003	564.73175	-116.47813	966.17926	880.10059	235.44386	914.94617	889.72339	-53.47173	910.54791	1109.50317	100.49873	921.69208	715.82751	216.74884	611.95319	732.77203	253.55371	489.94125	659.95367	185.39998	269.39032	659.04236	252.07928	93.29768	712.42676	186.03285	46.55762	518.52997	232.97783	104.95177	917.03748	11.52518	581.83398	1055.87842	-25.50326	443.06070	1083.57581	60.36045	310.79233	1228.75500	17.83888	71.06264	1295.70313	74.38953	66.39764	1092.42859	23.31228	40.57759	481.70016	219.27853	127.56582	514.00995	196.69975	113.98184	604.76489	164.32843	100.41659	667.77039	158.69514	64.05901	685.65668	231.49828	54.77693	606.73846	261.59769	65.37697	546.63184	269.31723	82.74254	1047.61133	48.22478	35.72414	1080.61633	62.22932	44.58186	1172.62549	105.10583	55.01334	1255.72180	106.14730	62.05132	1270.87097	32.29559	60.25161	1196.65222	6.59005	36.73826	1133.64648	-10.03820	38.67727																																																	798.70386	90.35612	15.75558	
250	2.075	874.50549	118.55007	1692.36560	760.35791	122.74586	1613.04407	979.78259	104.38717	1620.20728	950.54742	302.27069	1386.39038	1058.52734	20.89564	1254.40710	1088.32483	396.76773	1098.89417	1083.98914	425.20285	836.22284	876.11523	-97.32299	1389.41785	767.23669	-181.54282	1081.92932	545.42944	-112.14215	969.72772	865.74030	235.72917	912.05005	877.35492	-53.77321	908.22693	1095.99646	102.37818	918.75024	703.59955	214.74704	608.17322	719.42798	252.08612	488.01392	637.90704	184.94591	270.65076	629.54254	252.49406	94.73605	680.24597	186.13748	45.41919	489.74686	234.25175	112.25163	908.13184	9.85504	578.96631	1049.63000	-25.95049	442.07449	1079.32227	59.92365	309.99802	1228.11731	17.57978	72.98009	1294.72461	74.47475	69.12019	1092.41174	23.18734	40.54310	453.76044	220.61931	136.74072	484.90353	198.20769	121.43635	575.23315	164.74156	103.67156	636.30145	159.06966	64.91008	653.70197	231.52597	54.62719	576.13849	262.18903	69.04241	516.44745	270.93146	89.70501	1047.06836	48.01104	35.55835	1080.52832	62.13708	44.57526	1172.14026	105.05722	56.25402	1254.67554	106.32544	64.18356	1270.08545	32.54632	62.33440	1196.44470	6.50777	37.45979	1133.78479	-10.14212	38.82915																																																	757.12042	96.70865	24.65227	
251	2.083	861.52716	118.81596	1689.70386	747.41577	123.40397	1610.08752	966.99548	104.87058	1617.54260	937.95306	303.13248	1384.23633	1045.73828	21.79111	1251.43872	1078.42126	397.21219	1097.94556	1077.39063	425.55908	835.38879	863.46381	-96.83212	1386.30200	750.98517	-179.46159	1080.02893	527.48047	-108.23666	973.21619	852.06677	236.19545	909.44275	865.17664	-54.18888	905.32526	1082.79309	104.10537	916.25122	692.62152	212.88147	604.31989	706.38550	251.19411	485.66891	616.83368	184.85384	271.59512	602.24524	252.28210	96.25559	649.84619	185.70277	45.27459	462.37720	235.53944	119.32459	899.36938	8.49953	576.16016	1042.74451	-26.24807	441.06146	1073.48181	59.13763	309.05737	1227.45642	17.86709	74.86187	1294.03589	74.85004	72.00905	1092.46765	23.07316	40.49310	427.12692	222.77100	144.84575	457.73730	199.39032	128.79227	546.19025	165.44626	107.64062	606.31171	159.12112	66.23673	624.09174	231.14915	55.62538	547.10974	262.49750	72.56252	490.23657	273.41281	96.66127	1046.61157	47.82247	35.43041	1080.40857	62.07532	44.56744	1171.48413	104.92640	57.70749	1254.05383	106.20106	66.93208	1268.54138	33.43074	64.57364	1196.24487	5.99681	38.26809	1133.51929	-10.37867	38.91163																																																	723.38916	101.62027	32.56331	
252	2.092	848.48297	118.70597	1687.08765	734.88916	123.67611	1607.43494	953.80811	104.99754	1615.03174	925.06024	303.79562	1381.99316	1032.57361	22.40634	1248.55444	1068.13159	397.60239	1097.03699	1070.95459	425.12158	834.27460	850.38129	-95.65310	1383.27209	735.17462	-177.03963	1077.85535	509.76553	-104.45698	976.31244	837.02936	235.74448	906.97748	852.15955	-53.91059	903.00336	1069.34375	105.50249	913.89783	681.81305	211.09383	600.75909	693.70654	250.30792	483.53482	596.68268	184.47441	272.93268	575.77704	252.25061	97.68619	619.92267	185.27968	45.14499	436.79294	236.80949	125.92075	889.83673	7.24835	573.29413	1035.75903	-26.60117	440.46207	1068.29517	58.71793	308.47302	1226.76746	17.10769	77.40860	1292.99207	74.69187	76.13796	1092.39807	22.83829	40.34318	402.44769	223.99884	152.58461	432.46997	201.30992	135.56030	520.35529	166.51120	111.04599	578.07141	158.86978	67.82550	596.41742	230.89815	56.89081	520.81750	263.09964	76.14437	463.95856	274.15408	101.40958	1046.17065	47.66657	35.24334	1080.22607	61.98510	44.60629	1170.41162	104.41255	58.99760	1252.84509	106.10194	69.64714	1268.15686	32.68489	67.88609	1195.75037	5.93032	39.10632	1133.18506	-10.61388	39.05464	
253	2.100	835.11627	119.26889	1684.84985	721.69934	124.49208	1605.06592	940.60559	105.54254	1612.78979	912.61584	304.64423	1380.07239	1019.46655	23.22057	1245.66504	1057.45642	397.83160	1095.87146	1063.67773	425.71027	833.38672	836.99701	-94.70043	1380.62878	719.37634	-174.91402	1076.20557	492.49561	-100.94216	978.96960	822.39282	236.00398	904.59650	839.37341	-53.96612	900.53271	1055.08789	107.47520	911.26044	669.72101	209.22887	597.63879	681.18719	249.99097	481.48502	577.14349	184.29478	274.24890	551.65509	252.25037	99.57166	593.86615	184.52376	46.29958	412.94971	237.69878	131.90425	879.48016	5.98916	570.87970	1028.52795	-27.12141	439.65775	1062.82263	58.49227	308.12811	1225.70789	16.52202	80.35987	1291.52661	74.24857	80.17613	1092.41504	22.78266	40.32969	379.32837	225.27116	159.62105	409.11719	202.49632	141.38792	495.84897	166.16159	115.07078	552.07916	158.49706	69.93364	570.56421	230.47206	57.88169	495.19867	262.88315	78.95239	439.50735	274.43677	105.40745	1045.93030	47.53406	35.07561	1079.90503	61.79833	44.66027	1169.51318	103.84946	60.70178	1251.70776	105.59399	73.26256	1267.56152	32.01844	71.57174	1195.20972	5.39755	40.87418	1133.28687	-10.13073	38.63161	
